<?xml version="1.0" standalone="no"?><!DOCTYPE svg PUBLIC "-//W3C//DTD SVG 1.1//EN" "http://www.w3.org/Graphics/SVG/1.1/DTD/svg11.dtd"><svg t="1508571160488" class="icon" style="" viewBox="0 0 1024 1024" version="1.1" xmlns="http://www.w3.org/2000/svg" p-id="4900" xmlns:xlink="http://www.w3.org/1999/xlink" width="48" height="48"><defs><style type="text/css"></style></defs><path d="M510 590.2c-161.3 0-292.6-131.3-292.6-292.6S348.7 5 510 5s292.6 131.3 292.6 292.6S671.3 590.2 510 590.2z m0-536.4c-134.4 0-243.8 109.4-243.8 243.8S375.6 541.4 510 541.4 753.8 432 753.8 297.6 644.4 53.8 510 53.8z" fill="#ffffff" p-id="4901"></path><path d="M512.2 1018.6c-52.4 0-512-3-512-108 0-1.1 0.1-2.2 0.2-3.3 0.3-2.2 0.5-3.8 0.8-5.3C21 752.5 136.4 621.6 302.6 560.3c9-3.4 19.1-1.1 25.9 5.8 49.6 50.7 114.8 78.6 183.7 78.6 68.8 0 134-27.9 183.6-78.5 6.7-6.9 16.8-9.2 25.9-5.8 166.1 61.3 281.4 191.8 301.4 340.9 0.8 3.1 1.2 6.2 1.2 9.3-0.1 104.9-459.7 108-512.1 108zM49.6 908.5c21.4 21.8 176.1 61.3 462.7 61.3 286.4 0 441.1-39.5 462.6-61.3-16.7-127.2-114.1-239.8-255.8-296.9-57.2 52.9-130.1 81.9-206.8 81.9-76.8 0-149.7-29-207-82-141.6 57.1-239 169.7-255.7 297z m926.2 4.9z" fill="#ffffff" p-id="4902"></path><path d="M369.9 275.9m-24.4 0a24.4 24.4 0 1 0 48.8 0 24.4 24.4 0 1 0-48.8 0Z" fill="#ffffff" p-id="4903"></path><path d="M491.8 152.1m-24.4 0a24.4 24.4 0 1 0 48.8 0 24.4 24.4 0 1 0-48.8 0Z" fill="#ffffff" p-id="4904"></path><path d="M394.2 274.3c0-53.9 43.7-97.5 97.5-97.5V128c-80.8 0-146.3 65.5-146.3 146.3" fill="#ffffff" p-id="4905"></path></svg>